<?xml version="1.0" standalone="no"?>
<!DOCTYPE svg PUBLIC "-//W3C//DTD SVG 20010904//EN"
 "http://www.w3.org/TR/2001/REC-SVG-20010904/DTD/svg10.dtd">
<svg version="1.0" xmlns="http://www.w3.org/2000/svg"
 width="300.000000pt" height="300.000000pt" viewBox="0 0 300.000000 300.000000"
 preserveAspectRatio="xMidYMid meet">

<g transform="translate(0.000000,300.000000) scale(0.100000,-0.100000)"
fill="#000000" stroke="none">
<path d="M1160 2785 c-228 -52 -561 -115 -819 -154 -107 -17 -198 -34 -203
-39 -20 -20 38 -479 75 -588 l12 -39 96 3 96 2 17 -77 c9 -43 20 -109 26 -148
13 -94 13 -355 -1 -452 -18 -128 -66 -299 -124 -439 -30 -72 -55 -133 -55
-136 0 -8 172 -236 314 -416 l121 -154 40 6 c281 39 1268 39 1535 0 l36 -5
140 178 c209 265 294 380 294 398 0 8 -13 42 -29 73 -41 81 -98 247 -128 372
-20 87 -26 139 -30 300 -5 170 -2 211 17 324 32 191 23 178 128 170 68 -5 90
-4 99 7 33 41 117 629 89 629 -18 0 -407 62 -532 85 -168 31 -393 77 -568 116
-192 43 -172 59 -179 -138 -4 -91 -7 -259 -7 -373 l0 -207 92 -7 c51 -4 93 -8
95 -9 1 -2 -3 -65 -9 -142 -14 -191 -4 -841 16 -1010 8 -71 13 -131 12 -133
-21 -20 -460 -25 -576 -6 l-35 6 14 146 c13 146 21 826 11 1037 l-4 100 89 8
c50 5 92 11 95 14 6 6 1 524 -6 646 l-7 97 -31 -1 c-17 -1 -114 -20 -216 -44z
m212 -255 c1 -137 3 -285 3 -327 l0 -78 -87 -7 c-100 -7 -112 -12 -104 -42 2
-11 10 -148 16 -302 12 -294 4 -588 -24 -884 -11 -114 -11 -137 1 -150 12 -13
64 -15 348 -15 222 0 338 4 345 11 7 7 6 50 -5 145 -35 319 -41 767 -14 1098
5 68 8 126 5 128 -2 3 -45 8 -95 12 -50 5 -93 10 -94 12 -5 7 8 637 13 643 3
2 64 -9 135 -25 286 -64 741 -149 998 -185 46 -6 47 -7 47 -42 0 -60 -29 -280
-53 -397 l-22 -110 -90 0 c-113 -1 -112 0 -118 -27 -58 -268 -72 -411 -57
-588 19 -229 70 -410 188 -671 3 -6 -149 -208 -302 -402 -100 -126 -101 -127
-136 -123 -194 28 -1185 32 -1435 7 -93 -10 -101 -9 -115 8 -77 96 -296 381
-338 438 l-53 72 31 62 c42 82 104 270 132 399 19 91 22 134 23 330 0 195 -3
240 -23 338 -12 62 -27 124 -32 138 l-10 26 -94 -7 -95 -7 -10 39 c-27 100
-81 496 -70 508 2 1 67 12 144 24 228 35 626 109 830 156 105 23 196 43 203
44 9 1 13 -56 14 -249z"/>
<path d="M1000 2579 c-96 -21 -260 -54 -365 -74 -104 -20 -214 -40 -244 -46
l-54 -11 7 -81 c4 -45 13 -113 19 -152 l12 -70 87 3 c98 4 88 14 113 -108 42
-200 56 -487 34 -688 -18 -169 -80 -432 -135 -576 -7 -18 235 -323 346 -437
l25 -26 155 10 c204 12 878 12 1050 0 74 -5 140 -8 145 -5 31 12 365 426 365
452 0 8 -9 40 -21 70 -36 94 -87 293 -105 411 -28 173 -25 502 4 669 13 69 28
148 36 175 l13 50 85 -3 c77 -3 87 -2 92 15 8 30 38 284 34 289 -3 2 -79 18
-169 34 -90 16 -279 53 -420 82 -141 28 -263 49 -271 45 -12 -4 -16 -38 -21
-169 -3 -89 -2 -167 2 -171 5 -5 40 -13 80 -19 46 -7 71 -15 71 -23 0 -7 -8
-73 -17 -147 -13 -104 -17 -214 -18 -503 0 -366 5 -455 41 -680 8 -49 14 -100
14 -112 0 -11 -26 -52 -57 -91 l-58 -70 -99 -12 c-98 -12 -490 -8 -578 6 -31
5 -47 18 -98 79 l-60 74 14 98 c37 240 49 420 49 698 0 251 -17 519 -39 641
-6 31 -5 32 43 38 26 4 63 10 81 13 l32 5 -1 112 c-2 165 -11 241 -29 242 -8
1 -94 -16 -190 -37z m180 -139 c0 -71 0 -133 1 -137 0 -5 -32 -13 -72 -20 -40
-7 -76 -16 -80 -20 -5 -5 -2 -62 6 -128 49 -429 42 -889 -21 -1284 l-14 -94
73 -86 c72 -84 74 -86 128 -93 130 -16 427 -21 555 -8 l131 12 73 87 c68 81
72 88 67 126 -3 22 -16 114 -28 205 -21 148 -23 205 -24 550 0 318 3 413 19
548 11 89 17 165 13 168 -3 3 -40 11 -82 17 l-77 10 7 136 c4 75 8 137 10 139
2 2 68 -10 147 -27 78 -16 255 -51 393 -76 137 -26 251 -48 253 -50 3 -3 -13
-138 -25 -203 l-6 -34 -83 7 -83 7 -15 -53 c-113 -399 -94 -903 49 -1283 14
-37 25 -73 25 -81 0 -16 -123 -173 -254 -323 l-89 -103 -51 6 c-169 18 -562
26 -846 16 -168 -6 -331 -13 -362 -16 -57 -6 -57 -6 -96 37 -54 60 -197 229
-260 310 l-53 67 30 88 c43 126 88 319 106 456 28 222 14 524 -35 749 -32 145
-19 131 -119 124 l-88 -7 -13 115 c-7 64 -11 118 -9 120 2 2 135 29 294 60
160 30 328 64 375 75 142 32 130 42 130 -109z"/>
</g>
</svg>
